<svg version="1.0" xmlns="http://www.w3.org/2000/svg"
 width="1248.000000pt" height="832.000000pt" viewBox="300 410 650 10"
 preserveAspectRatio="xMidYMid meet">

<g transform="translate(0.000000,832.000000) scale(0.100000,-0.100000)"
fill="#000000" stroke="none">
<path d="M4452 4320 l3 -1011 185 0 c102 0 213 0 248 0 l62 1 0 1010 0 1010
-250 0 -250 0 2 -1010z"/>
<path d="M7120 5103 c-66 -123 -120 -227 -120 -231 0 -4 402 -6 893 -5 l892 2
88 158 c48 87 106 191 129 231 l40 73 -900 -2 -901 -2 -121 -224z"/>
<path d="M3905 4880 c-136 -22 -249 -69 -359 -152 -178 -134 -280 -340 -293
-593 -20 -387 205 -714 559 -815 92 -27 253 -37 331 -21 l57 12 0 220 0 219
-27 -7 c-43 -12 -154 -8 -198 6 -246 80 -324 406 -141 594 76 78 210 121 316
100 l50 -10 0 217 c0 198 -2 218 -17 225 -30 11 -215 14 -278 5z"/>
<path d="M5810 4884 c-200 -35 -314 -88 -437 -206 -110 -107 -183 -255 -203
-414 -55 -440 258 -805 689 -804 167 0 295 40 417 131 l57 42 -5 -66 c-10
-123 -82 -239 -183 -297 -165 -94 -466 -71 -684 53 -30 17 -56 26 -58 21 -2
-5 -46 -88 -97 -184 -60 -110 -91 -178 -86 -185 18 -22 227 -115 310 -139 101
-29 301 -56 408 -56 168 0 364 46 487 115 155 86 281 235 344 405 56 151 54
131 58 878 l4 692 -248 -2 -248 -3 -5 -355 -5 -355 -33 -67 c-38 -77 -91 -128
-172 -166 -72 -34 -213 -43 -287 -18 -130 43 -207 177 -181 316 13 70 27 96
78 148 61 61 134 85 235 79 44 -2 88 -8 98 -12 16 -7 17 7 17 213 0 130 -4
223 -10 227 -12 7 -227 15 -260 9z"/>
<path d="M7770 3955 l0 -655 250 0 250 0 0 655 0 655 -250 0 -250 0 0 -655z"/>
</g>
</svg>
